# xmcd
#
# Track frame offsets: 
#        150
#        16794
#        26972
#        41188
#        52919
#        66041
#        77949
#        90342
#        102867
#        114322
#        123707
#        135746
#        146049
#        159356
#
# Disc length: 3026 seconds
#
# Revision: 0
# Processed by: cddbd v1.5.1PL2 Copyright (c) Steve Scherf et al.
# Submitted via: ExactAudioCopy v0.95a5
#
DISCID=b80bd00e
DTITLE=Brian Sklar - Aaiiee!!
DYEAR=1900
DGENRE=Country
TTITLE0=Big Mammou
TTITLE1=Diggy Liggy Lo
TTITLE2=Smoke That Cigarette
TTITLE3=Uncle Pen
TTITLE4=What If
TTITLE5=Don't You Ever Get Tired Of Hurting Me
TTITLE6=Old Slewfoot
TTITLE7=These Crazy Arms Of Mine
TTITLE8=Big Yellow Taxi
TTITLE9=Colinda
TTITLE10=Alligator Man
TTITLE11=Lone Star State Of Mind
TTITLE12=What A Liar I Am
TTITLE13=Twelve Bucks
EXTD=
EXTT0=
EXTT1=
EXTT2=
EXTT3=
EXTT4=
EXTT5=
EXTT6=
EXTT7=
EXTT8=
EXTT9=
EXTT10=
EXTT11=
EXTT12=
EXTT13=
PLAYORDER=
